# xmcd CD database file
#
# Track frame offsets:
#	150
#	31895
#	56355
#	88305
#	121275
#	148337
#
# Disc length: 2310 seconds
#
# Revision: 2
# Processed by: cddbd v1.5.2PL0 Copyright (c) Steve Scherf et al.
# Submitted via: CDex 1.51
#
DISCID=51090406
DTITLE=Ronnie Cuber - Passion Fruit
DYEAR=1985
DGENRE=Jazz
TTITLE0=Passion Fruit
TTITLE1=You Promised to be True
TTITLE2=What It is
TTITLE3=Love Notes
TTITLE4=Come Dance with Me
TTITLE5=It's Only in Your Mind
EXTD=Submitted By WinSkol\nRecorded March 1, 1985\nProJazz CDJ 616\n\nRonnie Cuber, Baritone Sax\nGeorge Benson, Guitar\nGeorge Wadenius, Guitar\nRichard Tee, Electric Piano\nBod Mounsey, Synthesizer\nWill Lee, Bass\nDave Wecki, Drums\nSammy Figueroa, Pe
EXTD=rcussion\nManolo Badrena, Percussion YEAR: 1985
EXTT0=Ronnie Cuber
EXTT1=D. Matthews
EXTT2=D. Matthews
EXTT3=Ronnie Cuber
EXTT4=D. Matthews
EXTT5=D. Matthews
PLAYORDER=
